<svg id="visual" viewBox="0 0 1336 768" width="1336" height="768" xmlns="http://www.w3.org/2000/svg" xmlns:xlink="http://www.w3.org/1999/xlink" version="1.1"><path d="M830 768L822.8 749.7C815.7 731.3 801.3 694.7 810.3 658.2C819.3 621.7 851.7 585.3 829.8 548.8C808 512.3 732 475.7 702 439C672 402.3 688 365.7 686.2 329C684.3 292.3 664.7 255.7 675.2 219.2C685.7 182.7 726.3 146.3 724.2 109.8C722 73.3 677 36.7 654.5 18.3L632 0L1336 0L1336 18.3C1336 36.7 1336 73.3 1336 109.8C1336 146.3 1336 182.7 1336 219.2C1336 255.7 1336 292.3 1336 329C1336 365.7 1336 402.3 1336 439C1336 475.7 1336 512.3 1336 548.8C1336 585.3 1336 621.7 1336 658.2C1336 694.7 1336 731.3 1336 749.7L1336 768Z" fill="#00a24e" stroke-linecap="round" stroke-linejoin="miter"></path></svg>